<?xml version="1.0" encoding="utf-8"?>
<!-- Generator: Adobe Illustrator 15.0.0, SVG Export Plug-In . SVG Version: 6.00 Build 0)  -->
<!DOCTYPE svg PUBLIC "-//W3C//DTD SVG 1.1//EN" "http://www.w3.org/Graphics/SVG/1.1/DTD/svg11.dtd">
<svg version="1.1" id="Layer_1" xmlns="http://www.w3.org/2000/svg" xmlns:xlink="http://www.w3.org/1999/xlink" x="0px" y="0px"
	 width="571.471px" height="471.231px" viewBox="0 0 571.471 471.231" enable-background="new 0 0 571.471 471.231"
	 xml:space="preserve">
<g>
	<rect x="243.376" y="319.972" fill="#392D3C" width="21.26" height="148.568"/>
	<path fill="#CA6F44" d="M536.522,319.972H54.017c-10.531,0-19.068-8.536-19.068-19.058c0-10.539,8.537-19.085,19.068-19.085
		h482.506V319.972z"/>
	<path fill="#5F3030" d="M34.948,300.911L34.948,300.911c0,10.528,8.537,19.059,19.068,19.059h482.506v-19.059H34.948z"/>
	<path fill="#E2E2E2" d="M177.31,188.698c60.742,0,60.742,93.131,60.742,93.131H73.974c0,0-28.371,1.335-28.371-30.158
		c0-31.494,50.98-62.973,50.98-62.973H177.31z"/>
	<path fill="#B0AFB0" d="M109.012,281.834c0,0-4.009-25.279,20.397-25.279c24.401,0,18.188,25.279,18.188,25.279H109.012z"/>
	<path fill="#D3B298" d="M101.106,188.698c0,0,38.055,51.01,69.777,0H101.106z"/>
	<path fill="#537D5B" d="M123.658,257.113c-4.434-1.17-8.755-2.834-12.861-5.018c-4.071-2.232-7.972-5.003-11.026-8.851
		c-0.498-0.677-0.393-1.629,0.252-2.169c0.688-0.506,1.629-0.384,2.157,0.268c0.025,0.045,0.062,0.094,0.078,0.143
		c2.269,3.684,5.631,6.743,9.321,9.314C115.308,253.342,119.364,255.465,123.658,257.113"/>
	<path fill="#392E33" d="M227.122,265.85c-1.495,2.204-4.477,2.781-6.688,1.293l-21.647-14.668c-2.193-1.48-2.767-4.48-1.268-6.688
		l27.824-41.09c1.453-2.212,4.493-2.787,6.686-1.288l21.654,14.645c2.194,1.49,2.744,4.489,1.275,6.705L227.122,265.85z"/>
	<path fill="#E3BEA1" d="M71.608,163.371c0,0,10.184,31.092,66.355,31.092c56.115,0,54.715-39.393,52.647-71.718V75.473
		c0,0-58.862-31.927-99.95,3.312c0,0-41.436,24.473-32.75,58.878C57.911,137.662,50.052,163.783,71.608,163.371"/>
	<path fill="#65433C" d="M57.911,137.664c0,0,14.115-6.627,19.917,3.321c5.788,9.944,10.789,12.02,13.682,12.02
		c2.915,0,9.95,3.312,7.011-48.512c0,0-2.449-12.842,6.258-12.842c8.674,0,82.513,6.621,92.033-26.551
		c9.555-33.167-111.521-53.892-129.76,10.367C67.052,75.468,21.033,101.193,57.911,137.664"/>
	<path fill="#E3BEA1" d="M222.079,248.562c0,0,20.404-16.405,31.956,15.978c0,0-1.368,10.202-15.983,17.297
		C238.052,281.836,201.708,269.41,222.079,248.562"/>
	<rect x="281.362" y="93.309" fill="#DFDCDA" width="194.537" height="151.1"/>
	<path fill="#D1CECC" d="M361.344,204.668l26.603,48.779c0,0,5.35,12.86-9.291,12.86h-39.498v15.526h82.082
		c0,0,18.621,0,18.621-18.708l-26.646-58.458H361.344z"/>
	<path fill="#56525C" d="M71.991,319.972c0,0-4.441,52.926,14.799,64.443c0,0,6.078-17.979,18.143-19.024v-45.419H71.991z"/>
	<path fill="#4F4F4F" d="M103.021,365.391c0,0-14.558,5.434-18.097,19.022c0,0,6.005,13.047,23.84,13.047h53.034v-35.205h-49.434
		L103.021,365.391z"/>
	<path fill="#542928" d="M225.513,437.444c0,0-1.548,9.756-1.548,17.628c0,7.867,8.034,15.875,12.149,15.875h61.131
		c0,0,2.449-3.253-5.998-15.875c-7.782-11.623-35.993-16.908-35.993-16.908S239.57,445.645,225.513,437.444"/>
	<rect x="135.507" y="397.452" fill="#342C32" width="26.292" height="21.274"/>
	<rect x="143.157" y="418.727" fill="#342C32" width="18.642" height="45.52"/>
	<rect x="112.694" y="445.628" fill="#342C32" width="59.105" height="18.618"/>
	<path fill="#2F262D" d="M112.694,454.938c0,8.575-6.957,15.525-15.503,15.525c-8.595,0-15.53-6.95-15.53-15.525
		c0-8.572,6.936-15.531,15.53-15.531C105.737,439.406,112.694,446.365,112.694,454.938"/>
	<path fill="#231F20" d="M431.593,125.85h-93.466c-1.272,0-2.313-1.029-2.313-2.281c0-1.271,1.041-2.299,2.313-2.299h93.466
		c1.264,0,2.29,1.027,2.29,2.299C433.883,124.82,432.856,125.85,431.593,125.85"/>
	<path fill="#5F3030" d="M167.366,439.783c0,0-13.056,21.619,0.75,31.448h24l44.724-0.451c0,0,0-30.997-37.898-30.997
		C198.941,439.783,186.8,447.635,167.366,439.783"/>
	<rect x="344.418" y="319.972" fill="#392D3C" width="21.272" height="150.98"/>
	<rect x="465.99" y="319.972" fill="#392D3C" width="21.315" height="150.98"/>
	<path fill="#5D88A0" d="M91.271,319.972v22.175c0,0,0.155,29.263,32.898,29.263c32.731,0,37.636,2.224,37.636,20.85v44.976
		c0,0,10.985,6.659,23.733,6.659c10.613,0,17.163-6.659,17.163-6.659v-55.179c0,0-0.115-12.849,9.418-12.849
		c9.525,0,9.525,13.951,9.525,13.951v54.021c0,0,7.553,9.166,19.965,9.166c12.415,0,19.279-3.551,19.279-8.943v-82.623
		c0,0-5.981-34.807-29.471-34.807H91.271z"/>
	<rect x="133.867" y="319.972" fill="#392D3C" width="21.272" height="150.98"/>
	<path fill="#C0857E" d="M154.856,170.102c-2.664,0-5.201-0.156-6.813-0.675c-3.753-1.162-8.412-5.968-8.627-6.166
		c-0.576-0.566-0.554-1.476,0.014-2.011c0.566-0.548,1.479-0.548,2.033,0.027c1.193,1.234,4.885,4.64,7.407,5.438
		c3.366,1.063,12.876,0.307,16.255-0.072c0.777-0.073,1.494,0.479,1.589,1.26c0.091,0.784-0.495,1.492-1.274,1.584
		C165.111,169.519,159.795,170.102,154.856,170.102"/>
	<path fill="#D98F6F" d="M156.247,146.551h6.307c0,0-1.693-8.662-2.584-12.205c-0.854-3.524-3.723-4.157-3.723-4.157h-1.629
		c0,0-2.873,0.633-3.736,4.157c-0.883,3.543-2.577,12.205-2.577,12.205h6.313H156.247z"/>
	<path fill="#CE8869" d="M159.008,132.165c-0.401,0.573-0.79,1.278-0.995,2.181c-0.866,3.543-2.583,12.205-2.583,12.205h0.817h5.496
		h0.817c0,0-1.7-8.662-2.591-12.205C159.772,133.443,159.388,132.738,159.008,132.165"/>
	<path fill="#65433C" d="M124.618,112.31c-0.314-0.234-0.553-0.73-0.37-1.177c0.186-0.424,0.583-0.707,0.968-0.945
		c0.74-0.451,1.588-0.738,2.399-0.994c1.667-0.483,3.355-0.792,5.081-1.051c3.392-0.521,6.832-0.829,10.256-1.083
		c0.771-0.057,1.467,0.555,1.506,1.337c0.063,0.795-0.549,1.462-1.311,1.526h-0.195c-3.377-0.233-6.73-0.419-10.158-0.374
		c-1.668,0.027-3.364,0.101-5.008,0.353c-0.852,0.122-1.659,0.282-2.416,0.602c-0.373,0.173-0.752,0.397-0.964,0.709
		C124.206,111.537,124.325,112.025,124.618,112.31"/>
	<path fill="#65433C" d="M179.138,112.31c0.293-0.284,0.426-0.772,0.188-1.098c-0.188-0.312-0.547-0.536-0.944-0.709
		c-0.743-0.319-1.569-0.479-2.391-0.602c-1.674-0.252-3.356-0.325-5.048-0.353c-3.364-0.045-6.769,0.141-10.111,0.374
		c-0.805,0.051-1.473-0.544-1.528-1.336c-0.056-0.766,0.532-1.457,1.317-1.527h0.211c3.412,0.254,6.828,0.562,10.249,1.083
		c1.694,0.259,3.397,0.567,5.056,1.051c0.834,0.256,1.647,0.543,2.42,0.994c0.391,0.238,0.749,0.521,0.949,0.945
		C179.697,111.579,179.466,112.075,179.138,112.31"/>
	<path fill="#65433C" d="M139.756,116.644c0,2.377-1.919,4.313-4.319,4.313c-2.369,0-4.311-1.937-4.311-4.313
		c0-2.401,1.941-4.334,4.311-4.334C137.837,112.31,139.756,114.242,139.756,116.644"/>
	<path fill="#65433C" d="M175.241,116.644c0,2.377-1.923,4.313-4.299,4.313c-2.392,0-4.338-1.937-4.338-4.313
		c0-2.401,1.946-4.334,4.338-4.334C173.318,112.31,175.241,114.242,175.241,116.644"/>
</g>
</svg>
