<?xml version="1.0" encoding="utf-8"?>
<!-- Generator: Adobe Illustrator 15.0.0, SVG Export Plug-In . SVG Version: 6.00 Build 0)  -->
<!DOCTYPE svg PUBLIC "-//W3C//DTD SVG 1.1//EN" "http://www.w3.org/Graphics/SVG/1.1/DTD/svg11.dtd">
<svg version="1.1" id="Layer_1" xmlns="http://www.w3.org/2000/svg" xmlns:xlink="http://www.w3.org/1999/xlink" x="0px" y="0px"
	 width="210px" height="224px" viewBox="0 0 210 224" enable-background="new 0 0 210 224" xml:space="preserve">
<g>
	<circle fill="#62C192" cx="105" cy="112" r="98.123"/>
	<g>
		<path fill="#E3BEA1" d="M80.604,136.621c0,0,5.084,15.523,33.129,15.523c28.017,0,27.317-19.668,26.284-35.807V92.736
			c0,0-29.387-15.939-49.9,1.654c0,0-20.688,12.219-16.352,29.396C73.766,123.787,69.842,136.828,80.604,136.621"/>
		<path fill="#65433C" d="M73.766,123.787c0,0,7.047-3.309,9.944,1.658c2.89,4.965,5.386,6,6.83,6c1.456,0,4.968,1.654,3.501-24.219
			c0,0-1.224-6.412,3.124-6.412c4.33,0,41.195,3.307,45.948-13.256C147.884,71,87.436,60.652,78.329,92.734
			C78.329,92.734,55.354,105.578,73.766,123.787"/>
		<path fill="#C0857E" d="M122.167,139.982c-1.33,0-2.597-0.078-3.401-0.338c-1.873-0.58-4.199-2.979-4.307-3.078
			c-0.288-0.283-0.276-0.736,0.007-1.004c0.282-0.273,0.737-0.273,1.015,0.014c0.596,0.617,2.439,2.316,3.698,2.715
			c1.681,0.531,6.429,0.154,8.115-0.035c0.389-0.037,0.746,0.238,0.794,0.629c0.045,0.391-0.248,0.744-0.637,0.791
			C127.287,139.691,124.633,139.982,122.167,139.982"/>
		<path fill="#D98F6F" d="M122.861,128.225h3.148c0,0-0.846-4.326-1.29-6.094c-0.426-1.76-1.858-2.076-1.858-2.076h-0.813
			c0,0-1.435,0.316-1.865,2.076c-0.44,1.768-1.286,6.094-1.286,6.094h3.151H122.861z"/>
		<path fill="#CE8869" d="M124.239,121.041c-0.2,0.287-0.394,0.639-0.496,1.09c-0.433,1.768-1.29,6.094-1.29,6.094h0.408h2.744
			h0.408c0,0-0.85-4.326-1.294-6.094C124.621,121.68,124.43,121.328,124.239,121.041"/>
		<path fill="#65433C" d="M107.07,111.129c-0.157-0.117-0.276-0.365-0.185-0.588c0.093-0.211,0.291-0.354,0.482-0.473
			c0.37-0.225,0.793-0.367,1.198-0.496c0.832-0.24,1.676-0.395,2.537-0.523c1.693-0.262,3.411-0.414,5.12-0.541
			c0.385-0.029,0.732,0.277,0.752,0.668c0.031,0.396-0.274,0.729-0.654,0.762h-0.098c-1.687-0.117-3.36-0.209-5.071-0.188
			c-0.833,0.014-1.68,0.051-2.5,0.176c-0.426,0.061-0.829,0.141-1.207,0.301c-0.186,0.086-0.375,0.199-0.48,0.354
			C106.864,110.742,106.924,110.986,107.07,111.129"/>
		<path fill="#65433C" d="M134.29,111.129c0.146-0.143,0.212-0.387,0.094-0.549c-0.094-0.154-0.273-0.268-0.472-0.354
			c-0.371-0.16-0.783-0.24-1.193-0.301c-0.836-0.125-1.676-0.162-2.521-0.176c-1.68-0.021-3.38,0.07-5.048,0.188
			c-0.402,0.025-0.735-0.271-0.764-0.668c-0.027-0.381,0.266-0.727,0.658-0.762h0.105c1.703,0.127,3.408,0.279,5.116,0.541
			c0.847,0.129,1.696,0.283,2.524,0.523c0.416,0.129,0.822,0.271,1.208,0.496c0.195,0.119,0.374,0.262,0.474,0.473
			C134.569,110.764,134.453,111.012,134.29,111.129"/>
		<path fill="#65433C" d="M114.628,113.293c0,1.186-0.958,2.152-2.156,2.152c-1.183,0-2.152-0.967-2.152-2.152
			c0-1.199,0.97-2.164,2.152-2.164C113.67,111.129,114.628,112.094,114.628,113.293"/>
		<path fill="#65433C" d="M132.345,113.293c0,1.186-0.96,2.152-2.146,2.152c-1.194,0-2.166-0.967-2.166-2.152
			c0-1.199,0.972-2.164,2.166-2.164C131.385,111.129,132.345,112.094,132.345,113.293"/>
	</g>
</g>
</svg>
