<?xml version="1.0" encoding="utf-8"?>
<!-- Generator: Adobe Illustrator 15.0.0, SVG Export Plug-In . SVG Version: 6.00 Build 0)  -->
<!DOCTYPE svg PUBLIC "-//W3C//DTD SVG 1.1//EN" "http://www.w3.org/Graphics/SVG/1.1/DTD/svg11.dtd">
<svg version="1.1" id="Layer_1" xmlns="http://www.w3.org/2000/svg" xmlns:xlink="http://www.w3.org/1999/xlink" x="0px" y="0px"
	 width="210px" height="224px" viewBox="0 0 210 224" enable-background="new 0 0 210 224" xml:space="preserve">
<g>
	<circle fill="#FFFFFF" cx="105" cy="112" r="102.403"/>
	<g>
		<path fill="#E3BEA1" d="M79.539,137.695c0,0,5.308,16.2,34.576,16.2c29.238,0,28.509-20.525,27.43-37.368V91.896
			c0,0-30.669-16.636-52.076,1.725c0,0-21.591,12.752-17.065,30.679C72.403,124.3,68.309,137.911,79.539,137.695"/>
		<path fill="#65433C" d="M72.403,124.3c0,0,7.353-3.453,10.377,1.731c3.014,5.182,5.619,6.263,7.128,6.263
			c1.518,0,5.185,1.725,3.653-25.277c0,0-1.276-6.689,3.259-6.689c4.522,0,42.995,3.45,47.955-13.834
			c4.977-17.284-58.108-28.082-67.61,5.4C77.166,91.894,53.185,105.297,72.403,124.3"/>
		<path fill="#C0857E" d="M122.915,141.203c-1.387,0-2.708-0.083-3.55-0.353c-1.955-0.605-4.381-3.109-4.495-3.212
			c-0.301-0.296-0.288-0.769,0.007-1.048c0.297-0.286,0.772-0.286,1.06,0.014c0.622,0.643,2.547,2.418,3.86,2.834
			c1.755,0.553,6.711,0.159,8.469-0.038c0.408-0.037,0.779,0.25,0.829,0.656c0.047,0.409-0.261,0.778-0.665,0.825
			C128.259,140.898,125.488,141.203,122.915,141.203"/>
		<path fill="#D98F6F" d="M123.64,128.932h3.286c0,0-0.882-4.516-1.347-6.359c-0.445-1.837-1.939-2.165-1.939-2.165h-0.849
			c0,0-1.498,0.328-1.949,2.165c-0.458,1.844-1.34,6.359-1.34,6.359h3.289H123.64z"/>
		<path fill="#CE8869" d="M125.077,121.435c-0.208,0.3-0.408,0.668-0.519,1.138c-0.451,1.844-1.344,6.359-1.344,6.359h0.425h2.864
			h0.425c0,0-0.886-4.516-1.35-6.359C125.475,122.103,125.277,121.734,125.077,121.435"/>
		<path fill="#65433C" d="M107.159,111.091c-0.164-0.123-0.288-0.381-0.19-0.613c0.097-0.221,0.304-0.369,0.501-0.494
			c0.388-0.234,0.829-0.383,1.25-0.518c0.869-0.251,1.751-0.412,2.65-0.547c1.768-0.271,3.559-0.434,5.341-0.563
			c0.404-0.03,0.765,0.288,0.786,0.694c0.033,0.415-0.288,0.763-0.682,0.797h-0.104c-1.758-0.122-3.506-0.218-5.291-0.194
			c-0.869,0.013-1.754,0.052-2.61,0.183c-0.444,0.064-0.866,0.148-1.26,0.314c-0.194,0.089-0.391,0.207-0.501,0.369
			C106.945,110.688,107.009,110.941,107.159,111.091"/>
		<path fill="#65433C" d="M135.568,111.091c0.15-0.149,0.22-0.403,0.097-0.572c-0.097-0.162-0.284-0.28-0.491-0.369
			c-0.388-0.166-0.818-0.25-1.247-0.314c-0.873-0.131-1.748-0.17-2.631-0.183c-1.754-0.023-3.525,0.072-5.267,0.194
			c-0.421,0.025-0.769-0.284-0.799-0.696c-0.026-0.399,0.278-0.759,0.689-0.795h0.11c1.778,0.13,3.556,0.292,5.337,0.563
			c0.886,0.135,1.772,0.296,2.637,0.547c0.431,0.135,0.859,0.283,1.26,0.518c0.205,0.125,0.392,0.273,0.495,0.494
			C135.859,110.71,135.739,110.968,135.568,111.091"/>
		<path fill="#65433C" d="M115.047,113.349c0,1.238-1,2.246-2.25,2.246c-1.233,0-2.246-1.008-2.246-2.246
			c0-1.254,1.013-2.258,2.246-2.258C114.047,111.091,115.047,112.095,115.047,113.349"/>
		<path fill="#65433C" d="M133.536,113.349c0,1.238-1.002,2.246-2.239,2.246c-1.246,0-2.259-1.008-2.259-2.246
			c0-1.254,1.013-2.258,2.259-2.258C132.534,111.091,133.536,112.095,133.536,113.349"/>
	</g>
</g>
</svg>
