<?xml version="1.0" encoding="utf-8"?>
<!-- Generator: Adobe Illustrator 15.0.0, SVG Export Plug-In . SVG Version: 6.00 Build 0)  -->
<!DOCTYPE svg PUBLIC "-//W3C//DTD SVG 1.1//EN" "http://www.w3.org/Graphics/SVG/1.1/DTD/svg11.dtd">
<svg version="1.1" id="Layer_1" xmlns="http://www.w3.org/2000/svg" xmlns:xlink="http://www.w3.org/1999/xlink" x="0px" y="0px"
	 width="337.878px" height="71.333px" viewBox="0 0 337.878 71.333" enable-background="new 0 0 337.878 71.333"
	 xml:space="preserve">
<g>
	<path fill="#FFFFFF" d="M33.519,43.051H22.31v16.286h-5.209V13.18h17.275c10.417,0,17.275,5.542,17.275,14.706
		C51.651,37.905,43.342,43.051,33.519,43.051z M33.98,17.994H22.31v20.308h11.407c7.648,0,12.66-4.086,12.66-10.218
		C46.376,21.422,41.43,17.994,33.98,17.994z"/>
	<path fill="#FFFFFF" d="M87.398,60.129c-10.221,0-17.671-8.044-17.671-17.735c0-9.694,7.517-17.869,17.802-17.869
		c10.221,0,17.736,8.044,17.736,17.735C105.266,51.95,97.683,60.129,87.398,60.129z M87.398,29.006
		c-7.385,0-12.461,5.867-12.461,13.254c0,7.386,5.405,13.316,12.592,13.316c7.385,0,12.529-5.866,12.529-13.183
		C100.058,34.94,94.585,29.006,87.398,29.006z"/>
	<path fill="#FFFFFF" d="M131.386,59.337h-5.077V25.246h5.077v8.905c2.505-5.672,7.45-9.761,13.912-9.496v5.475h-0.396
		c-7.45,0-13.517,5.337-13.517,15.625V59.337z"/>
	<path fill="#FFFFFF" d="M171.745,49.646c0,4.153,2.309,5.669,5.737,5.669c1.714,0,3.166-0.331,4.944-1.187v4.354
		c-1.778,0.919-3.693,1.449-6.132,1.449c-5.473,0-9.627-2.704-9.627-9.627v-20.57h-4.747v-4.487h4.747V14.961h5.077v10.285h10.813
		v4.487h-10.813V49.646z"/>
	<path fill="#FFFFFF" d="M205.376,31.776l-1.516-4.155c3.76-1.711,7.45-2.835,12.397-2.835c9.295,0,14.505,4.75,14.505,13.713
		v20.838h-4.881v-5.143c-2.372,3.1-6.33,5.867-12.331,5.867c-6.326,0-12.723-3.56-12.723-10.681c0-7.255,5.934-11.079,14.571-11.079
		c4.351,0,7.45,0.594,10.482,1.452v-1.185c0-6.135-3.757-9.298-10.153-9.298C211.707,29.271,208.541,30.324,205.376,31.776z
		 M205.97,49.183c0,4.352,3.955,6.856,8.571,6.856c6.263,0,11.408-3.823,11.408-9.228v-3.301c-2.506-0.722-5.867-1.449-10.023-1.449
		C209.53,42.062,205.97,44.832,205.97,49.183z"/>
	<path fill="#FFFFFF" d="M253.912,59.337V11.204h5.078v48.133H253.912z"/>
	<path fill="#FFFFFF" d="M318.205,24.723c0,6.064-3.692,9.161-7.319,10.744c5.475,1.65,9.893,4.813,9.893,11.211
		c0,7.979-6.662,12.659-16.752,12.659h-20.505V13.18h19.649C312.268,13.18,318.205,17.665,318.205,24.723z M312.928,25.443
		c0-4.612-3.626-7.581-10.218-7.581h-14.044v15.894h13.648C308.578,33.756,312.928,30.918,312.928,25.443z M315.499,46.346
		c0-5.075-4.22-7.974-12.264-7.974h-14.568v16.285h15.493C311.151,54.657,315.499,51.555,315.499,46.346z"/>
</g>
</svg>
